<svg width="561" height="170" viewBox="0 0 561 170" fill="none" xmlns="http://www.w3.org/2000/svg">
<path d="M53.3854 86H61.4854V121H53.3854V86ZM111.292 121.6C108.525 121.6 105.842 121.233 103.242 120.5C100.675 119.733 98.6083 118.75 97.0416 117.55L99.7916 111.45C101.292 112.55 103.075 113.433 105.142 114.1C107.208 114.767 109.275 115.1 111.342 115.1C113.642 115.1 115.342 114.767 116.442 114.1C117.542 113.4 118.092 112.483 118.092 111.35C118.092 110.517 117.758 109.833 117.092 109.3C116.458 108.733 115.625 108.283 114.592 107.95C113.592 107.617 112.225 107.25 110.492 106.85C107.825 106.217 105.642 105.583 103.942 104.95C102.242 104.317 100.775 103.3 99.5416 101.9C98.3416 100.5 97.7416 98.6333 97.7416 96.3C97.7416 94.2667 98.2916 92.4333 99.3916 90.8C100.492 89.1333 102.142 87.8167 104.342 86.85C106.575 85.8833 109.292 85.4 112.492 85.4C114.725 85.4 116.908 85.6667 119.042 86.2C121.175 86.7333 123.042 87.5 124.642 88.5L122.142 94.65C118.908 92.8167 115.675 91.9 112.442 91.9C110.175 91.9 108.492 92.2667 107.392 93C106.325 93.7333 105.792 94.7 105.792 95.9C105.792 97.1 106.408 98 107.642 98.6C108.908 99.1667 110.825 99.7333 113.392 100.3C116.058 100.933 118.242 101.567 119.942 102.2C121.642 102.833 123.092 103.833 124.292 105.2C125.525 106.567 126.142 108.417 126.142 110.75C126.142 112.75 125.575 114.583 124.442 116.25C123.342 117.883 121.675 119.183 119.442 120.15C117.208 121.117 114.492 121.6 111.292 121.6ZM248.776 86V121H240.676V106.65H224.776V121H216.676V86H224.776V99.8H240.676V86H248.776ZM354.157 114.5V121H327.057V86H353.507V92.5H335.107V100.1H351.357V106.4H335.107V114.5H354.157ZM402.902 121L396.152 111.25H395.752H388.702V121H380.602V86H395.752C398.852 86 401.535 86.5167 403.802 87.55C406.102 88.5833 407.869 90.05 409.102 91.95C410.335 93.85 410.952 96.1 410.952 98.7C410.952 101.3 410.319 103.55 409.052 105.45C407.819 107.317 406.052 108.75 403.752 109.75L411.602 121H402.902ZM402.752 98.7C402.752 96.7333 402.119 95.2333 400.852 94.2C399.585 93.1333 397.735 92.6 395.302 92.6H388.702V104.8H395.302C397.735 104.8 399.585 104.267 400.852 103.2C402.119 102.133 402.752 100.633 402.752 98.7ZM509.47 114.5V121H482.37V86H508.82V92.5H490.42V100.1H506.67V106.4H490.42V114.5H509.47Z" fill="white"/>
<path fill-rule="evenodd" clip-rule="evenodd" d="M154.458 162.8C152.191 160.8 150.191 157.6 148.458 153.2L138.676 128H104.102L111.858 149.2C113.458 153.2 114.258 156.4 114.258 158.8C114.258 161.333 113.191 163.133 111.058 164.2C108.924 165.133 105.324 165.733 100.258 166V170C106.924 169.6 117.058 169.4 130.658 169.4C142.924 169.4 153.058 169.6 161.058 170V166C158.924 165.867 156.724 164.8 154.458 162.8ZM51.8868 128L51.0578 130.2C47.3245 139.8 45.4578 147.2 45.4578 152.4C45.4578 157.333 46.9245 160.8 49.8578 162.8C52.9245 164.667 57.3911 165.733 63.2578 166V170C54.1911 169.6 45.9245 169.4 38.4578 169.4C32.3245 169.4 27.2578 169.6 23.2578 170V166C29.7911 164.8 35.5245 157.8 40.4578 145L47.0835 128H51.8868ZM66.5706 78H71.1082L78.6578 58.4L85.8445 78H119.267L99.8578 28C98.5245 28.1333 96.2578 28.2 93.0578 28.2C89.8578 28.2 87.5245 28.1333 86.0578 28L66.5706 78ZM216.784 128V147.2C216.784 152.8 216.184 156.867 214.984 159.4C213.918 161.933 211.918 163.667 208.984 164.6C206.184 165.4 201.651 165.867 195.384 166V170C211.384 169.6 223.584 169.4 231.984 169.4C240.518 169.4 253.184 169.6 269.984 170V166C263.718 165.867 259.118 165.4 256.184 164.6C253.384 163.667 251.384 161.933 250.184 159.4C249.118 156.867 248.584 152.8 248.584 147.2V128H216.784ZM248.584 78H216.784V33H212.384C205.984 33 200.518 34.4 195.984 37.2C191.584 40 187.784 44.6667 184.584 51.2C181.384 57.6 178.651 66.4 176.384 77.6H171.784C172.184 73.7333 172.384 68.6667 172.384 62.4C172.384 52.4 171.918 41.0667 170.984 28.4C183.118 28.8 203.718 29 232.784 29C261.851 29 282.384 28.8 294.384 28.4C293.451 41.0667 292.984 52.4 292.984 62.4C292.984 68.6667 293.184 73.7333 293.584 77.6H288.984C285.784 61.2 281.384 49.6667 275.784 43C270.318 36.3333 262.784 33 253.184 33H248.584V78ZM328.88 128L322.255 145C317.321 157.8 311.588 164.8 305.055 166V170C309.055 169.6 314.121 169.4 320.255 169.4C327.721 169.4 335.988 169.6 345.055 170V166C339.188 165.733 334.721 164.667 331.655 162.8C328.721 160.8 327.255 157.333 327.255 152.4C327.255 147.2 329.121 139.8 332.855 130.2L333.684 128H328.88ZM385.899 128L393.655 149.2C395.255 153.2 396.055 156.4 396.055 158.8C396.055 161.333 394.988 163.133 392.855 164.2C390.721 165.133 387.121 165.733 382.055 166V170C388.721 169.6 398.855 169.4 412.455 169.4C424.721 169.4 434.855 169.6 442.855 170V166C440.721 165.867 438.521 164.8 436.255 162.8C433.988 160.8 431.988 157.6 430.255 153.2L420.473 128H385.899ZM401.064 78L381.655 28C380.321 28.1333 378.055 28.2 374.855 28.2C371.655 28.2 369.321 28.1333 367.855 28L348.368 78H352.905L360.455 58.4L367.641 78H401.064ZM479.347 128V148.8C479.347 153.867 478.947 157.533 478.147 159.8C477.48 162.067 476.08 163.6 473.947 164.4C471.947 165.2 468.747 165.733 464.347 166V170C471.147 169.6 481.68 169.4 495.947 169.4C508.88 169.4 518.947 169.6 526.147 170V166C521.614 165.733 518.347 165.2 516.347 164.4C514.347 163.6 512.947 162.067 512.147 159.8C511.48 157.533 511.147 153.867 511.147 148.8V128H479.347ZM511.147 78H479.347V49.6C479.347 44.5333 478.947 40.8667 478.147 38.6C477.48 36.3333 476.08 34.8 473.947 34C471.947 33.2 468.747 32.6667 464.347 32.4V28.4C471.147 28.8 481.68 29 495.947 29C508.88 29 518.947 28.8 526.147 28.4V32.4C521.614 32.6667 518.347 33.2 516.347 34C514.347 34.8 512.947 36.3333 512.147 38.6C511.48 40.8667 511.147 44.5333 511.147 49.6V78Z" fill="white"/>
</svg>
